v 7.433599 0.000000 0.000000
v 6.334196 0.000000 2.654196
v 3.680000 0.000000 3.753600
v 1.025804 0.000000 2.654196
v -0.073600 -0.000000 -0.000000
v 1.025804 0.000000 -2.654196
v 3.680000 0.000000 -3.753600
v 6.334195 0.000000 -2.654196
v 6.931625 2.685326 0.000000
v 5.906462 2.288175 2.654196
v 3.431497 1.329369 3.753600
v 0.956534 0.370563 2.654196
v -0.068630 -0.026587 -0.000000
v 0.956534 0.370563 -2.654196
v 3.431498 1.329369 -3.753600
v 5.906461 2.288175 -2.654196
v 5.493496 5.007983 0.000000
v 4.681027 4.267320 2.654196
v 2.719553 2.479200 3.753600
v 0.758078 0.691080 2.654196
v -0.054391 -0.049584 -0.000000
v 0.758078 0.691080 -2.654196
v 2.719553 2.479200 -3.753600
v 4.681026 4.267320 -2.654196
v 3.313440 6.654285 0.000000
v 2.823394 5.670139 2.654196
v 1.640317 3.294201 3.753600
v 0.457240 0.918262 2.654196
v -0.032806 -0.065884 -0.000000
v 0.457240 0.918262 -2.654196
v 1.640317 3.294201 -3.753600
v 2.823394 5.670139 -2.654196
v 0.685886 7.401889 0.000000
v 0.584446 6.307175 2.654196
v 0.339548 3.664301 3.753600
v 0.094649 1.021428 2.654196
v -0.006791 -0.073286 -0.000000
v 0.094649 1.021428 -2.654196
v 0.339548 3.664302 -3.753600
v 0.584446 6.307174 -2.654196
v -2.034301 7.149827 0.000000
v -1.733435 6.092392 2.654196
v -1.007080 3.539518 3.753600
v -0.280725 0.986645 2.654196
v 0.020142 -0.070790 -0.000000
v -0.280724 0.986644 -2.654196
v -1.007080 3.539518 -3.753600
v -1.733435 6.092391 -2.654196
v -4.479745 5.932140 0.000000
v -3.817206 5.054797 2.654196
v -2.217695 2.936703 3.753600
v -0.618185 0.818609 2.654196
v 0.044354 -0.058734 -0.000000
v -0.618185 0.818609 -2.654196
v -2.217695 2.936703 -3.753600
v -3.817206 5.054797 -2.654196
v -6.320174 3.913286 0.000000
v -5.385442 3.334524 2.654196
v -3.128799 1.937270 3.753600
v -0.872156 0.540016 2.654196
v 0.062576 -0.038745 -0.000000
v -0.872156 0.540016 -2.654196
v -3.128799 1.937270 -3.753600
v -5.385441 3.334524 -2.654196
v -7.307028 1.365920 0.000000
v -6.226344 1.163906 2.654196
v -3.617341 0.676198 3.753600
v -1.008338 0.188491 2.654196
v 0.072347 -0.013524 -0.000000
v -1.008337 0.188491 -2.654196
v -3.617341 0.676198 -3.753600
v -6.226344 1.163905 -2.654196
v -7.307028 -1.365920 0.000000
v -6.226344 -1.163905 2.654196
v -3.617341 -0.676198 3.753600
v -1.008338 -0.188491 2.654196
v 0.072347 0.013524 -0.000000
v -1.008337 -0.188491 -2.654196
v -3.617341 -0.676198 -3.753600
v -6.226344 -1.163905 -2.654196
v -6.320174 -3.913285 0.000000
v -5.385442 -3.334524 2.654196
v -3.128799 -1.937270 3.753600
v -0.872156 -0.540016 2.654196
v 0.062576 0.038745 -0.000000
v -0.872156 -0.540016 -2.654196
v -3.128799 -1.937270 -3.753600
v -5.385441 -3.334524 -2.654196
v -4.479745 -5.932140 0.000000
v -3.817206 -5.054797 2.654196
v -2.217695 -2.936703 3.753600
v -0.618185 -0.818609 2.654196
v 0.044354 0.058734 -0.000000
v -0.618185 -0.818609 -2.654196
v -2.217696 -2.936703 -3.753600
v -3.817206 -5.054796 -2.654196
v -2.034300 -7.149827 0.000000
v -1.733434 -6.092392 2.654196
v -1.007079 -3.539518 3.753600
v -0.280724 -0.986645 2.654196
v 0.020142 0.070790 -0.000000
v -0.280724 -0.986644 -2.654196
v -1.007079 -3.539518 -3.753600
v -1.733434 -6.092391 -2.654196
v 0.685885 -7.401889 0.000000
v 0.584445 -6.307175 2.654196
v 0.339547 -3.664301 3.753600
v 0.094649 -1.021428 2.654196
v -0.006791 0.073286 -0.000000
v 0.094649 -1.021428 -2.654196
v 0.339547 -3.664302 -3.753600
v 0.584445 -6.307175 -2.654196
v 3.313441 -6.654285 0.000000
v 2.823394 -5.670139 2.654196
v 1.640317 -3.294201 3.753600
v 0.457240 -0.918262 2.654196
v -0.032806 0.065884 -0.000000
v 0.457240 -0.918262 -2.654196
v 1.640317 -3.294201 -3.753600
v 2.823394 -5.670139 -2.654196
v 5.493495 -5.007985 0.000000
v 4.681026 -4.267321 2.654196
v 2.719552 -2.479200 3.753600
v 0.758078 -0.691080 2.654196
v -0.054391 0.049584 -0.000000
v 0.758078 -0.691080 -2.654196
v 2.719552 -2.479200 -3.753600
v 4.681026 -4.267321 -2.654196
v 6.931625 -2.685326 0.000000
v 5.906462 -2.288176 2.654196
v 3.431497 -1.329369 3.753600
v 0.956534 -0.370563 2.654196
v -0.068630 0.026587 -0.000000
v 0.956534 -0.370563 -2.654196
v 3.431498 -1.329369 -3.753600
v 5.906461 -2.288175 -2.654196
