v 0.000000 0.000000 1.040000
v 0.000000 0.000000 1.040000
v 0.000000 0.000000 1.040000
v 0.000000 0.000000 1.040000
v -0.000000 0.000000 1.040000
v -0.000000 0.000000 1.040000
v -0.000000 0.000000 1.040000
v -0.000000 -0.000000 1.040000
v -0.000000 -0.000000 1.040000
v -0.000000 -0.000000 1.040000
v -0.000000 -0.000000 1.040000
v 0.000000 -0.000000 1.040000
v 0.000000 -0.000000 1.040000
v 0.000000 -0.000000 1.040000
v 0.397991 0.000000 0.960835
v 0.358577 0.172682 0.960835
v 0.248143 0.311162 0.960835
v 0.088561 0.388012 0.960835
v -0.088561 0.388012 0.960835
v -0.248143 0.311162 0.960835
v -0.358577 0.172682 0.960835
v -0.397991 -0.000000 0.960835
v -0.358577 -0.172682 0.960835
v -0.248143 -0.311162 0.960835
v -0.088561 -0.388012 0.960835
v 0.088561 -0.388012 0.960835
v 0.248143 -0.311162 0.960835
v 0.358577 -0.172682 0.960835
v 0.735391 0.000000 0.735391
v 0.662564 0.319074 0.735391
v 0.458509 0.574952 0.735391
v 0.163640 0.716953 0.735391
v -0.163640 0.716953 0.735391
v -0.458509 0.574952 0.735391
v -0.662564 0.319074 0.735391
v -0.735391 -0.000000 0.735391
v -0.662564 -0.319074 0.735391
v -0.458509 -0.574952 0.735391
v -0.163640 -0.716953 0.735391
v 0.163640 -0.716953 0.735391
v 0.458509 -0.574952 0.735391
v 0.662564 -0.319074 0.735391
v 0.960835 0.000000 0.397991
v 0.865682 0.416891 0.397991
v 0.599071 0.751211 0.397991
v 0.213806 0.936745 0.397991
v -0.213806 0.936745 0.397991
v -0.599071 0.751211 0.397991
v -0.865682 0.416891 0.397991
v -0.960835 -0.000000 0.397991
v -0.865682 -0.416891 0.397991
v -0.599070 -0.751211 0.397991
v -0.213806 -0.936745 0.397991
v 0.213806 -0.936745 0.397991
v 0.599070 -0.751211 0.397991
v 0.865682 -0.416891 0.397991
v 1.040000 0.000000 -0.000000
v 0.937008 0.451239 -0.000000
v 0.648429 0.813105 -0.000000
v 0.231422 1.013925 -0.000000
v -0.231422 1.013925 -0.000000
v -0.648429 0.813105 -0.000000
v -0.937008 0.451239 -0.000000
v -1.040000 -0.000000 -0.000000
v -0.937008 -0.451239 -0.000000
v -0.648429 -0.813105 -0.000000
v -0.231422 -1.013925 -0.000000
v 0.231422 -1.013925 -0.000000
v 0.648429 -0.813105 -0.000000
v 0.937008 -0.451239 -0.000000
v 0.960835 0.000000 -0.397991
v 0.865682 0.416891 -0.397991
v 0.599071 0.751211 -0.397991
v 0.213806 0.936745 -0.397991
v -0.213806 0.936745 -0.397991
v -0.599071 0.751211 -0.397991
v -0.865682 0.416891 -0.397991
v -0.960835 -0.000000 -0.397991
v -0.865682 -0.416891 -0.397991
v -0.599070 -0.751211 -0.397991
v -0.213806 -0.936745 -0.397991
v 0.213806 -0.936745 -0.397991
v 0.599070 -0.751211 -0.397991
v 0.865682 -0.416891 -0.397991
v 0.735391 0.000000 -0.735391
v 0.662564 0.319074 -0.735391
v 0.458509 0.574952 -0.735391
v 0.163640 0.716953 -0.735391
v -0.163640 0.716953 -0.735391
v -0.458509 0.574952 -0.735391
v -0.662564 0.319074 -0.735391
v -0.735391 -0.000000 -0.735391
v -0.662564 -0.319074 -0.735391
v -0.458509 -0.574952 -0.735391
v -0.163640 -0.716953 -0.735391
v 0.163640 -0.716953 -0.735391
v 0.458509 -0.574952 -0.735391
v 0.662564 -0.319074 -0.735391
v 0.397991 0.000000 -0.960835
v 0.358577 0.172682 -0.960835
v 0.248143 0.311162 -0.960835
v 0.088561 0.388012 -0.960835
v -0.088561 0.388012 -0.960835
v -0.248143 0.311162 -0.960835
v -0.358577 0.172682 -0.960835
v -0.397991 -0.000000 -0.960835
v -0.358577 -0.172682 -0.960835
v -0.248143 -0.311162 -0.960835
v -0.088561 -0.388012 -0.960835
v 0.088561 -0.388012 -0.960835
v 0.248143 -0.311162 -0.960835
v 0.358577 -0.172682 -0.960835
v -0.000000 -0.000000 -1.040000
v -0.000000 -0.000000 -1.040000
v -0.000000 -0.000000 -1.040000
v -0.000000 -0.000000 -1.040000
v 0.000000 -0.000000 -1.040000
v 0.000000 -0.000000 -1.040000
v 0.000000 -0.000000 -1.040000
v 0.000000 0.000000 -1.040000
v 0.000000 0.000000 -1.040000
v 0.000000 0.000000 -1.040000
v 0.000000 0.000000 -1.040000
v -0.000000 0.000000 -1.040000
v -0.000000 0.000000 -1.040000
v -0.000000 0.000000 -1.040000
