v 0.000000 0.000000 3.600000
v 0.000000 0.000000 3.600000
v 0.000000 0.000000 3.600000
v 0.000000 0.000000 3.600000
v -0.000000 0.000000 3.600000
v -0.000000 0.000000 3.600000
v -0.000000 0.000000 3.600000
v -0.000000 0.000000 3.600000
v -0.000000 -0.000000 3.600000
v -0.000000 -0.000000 3.600000
v -0.000000 -0.000000 3.600000
v -0.000000 -0.000000 3.600000
v 0.000000 -0.000000 3.600000
v 0.000000 -0.000000 3.600000
v 0.000000 -0.000000 3.600000
v 0.000000 -0.000000 3.600000
v 0.801075 0.000000 3.509740
v 0.740097 0.306558 3.509740
v 0.566446 0.566446 3.509740
v 0.306558 0.740097 3.509740
v -0.000000 0.801075 3.509740
v -0.306558 0.740097 3.509740
v -0.566446 0.566446 3.509740
v -0.740097 0.306558 3.509740
v -0.801075 -0.000000 3.509740
v -0.740097 -0.306558 3.509740
v -0.566446 -0.566446 3.509740
v -0.306558 -0.740097 3.509740
v 0.000000 -0.801075 3.509740
v 0.306558 -0.740097 3.509740
v 0.566446 -0.566446 3.509740
v 0.740097 -0.306558 3.509740
v 1.561981 0.000000 3.243488
v 1.443083 0.597744 3.243488
v 1.104488 1.104488 3.243488
v 0.597744 1.443083 3.243488
v -0.000000 1.561981 3.243488
v -0.597744 1.443083 3.243488
v -1.104488 1.104488 3.243488
v -1.443083 0.597745 3.243488
v -1.561981 -0.000000 3.243488
v -1.443083 -0.597744 3.243488
v -1.104488 -1.104488 3.243488
v -0.597745 -1.443083 3.243488
v 0.000000 -1.561981 3.243488
v 0.597745 -1.443083 3.243488
v 1.104487 -1.104488 3.243488
v 1.443083 -0.597744 3.243488
v 2.244563 0.000000 2.814593
v 2.073706 0.858957 2.814593
v 1.587146 1.587146 2.814593
v 0.858957 2.073706 2.814593
v -0.000000 2.244563 2.814593
v -0.858957 2.073706 2.814593
v -1.587146 1.587146 2.814593
v -2.073706 0.858957 2.814593
v -2.244563 -0.000000 2.814593
v -2.073706 -0.858957 2.814593
v -1.587146 -1.587146 2.814593
v -0.858957 -2.073706 2.814593
v 0.000000 -2.244563 2.814593
v 0.858958 -2.073706 2.814593
v 1.587145 -1.587146 2.814593
v 2.073706 -0.858957 2.814593
v 2.814593 0.000000 2.244563
v 2.600345 1.077098 2.244563
v 1.990218 1.990218 2.244563
v 1.077098 2.600345 2.244563
v -0.000000 2.814593 2.244563
v -1.077098 2.600345 2.244563
v -1.990218 1.990218 2.244563
v -2.600345 1.077098 2.244563
v -2.814593 -0.000000 2.244563
v -2.600345 -1.077098 2.244563
v -1.990218 -1.990218 2.244563
v -1.077099 -2.600345 2.244563
v 0.000000 -2.814593 2.244563
v 1.077099 -2.600345 2.244563
v 1.990218 -1.990218 2.244563
v 2.600345 -1.077098 2.244563
v 3.243488 0.000000 1.561981
v 2.996592 1.241229 1.561981
v 2.293492 2.293492 1.561981
v 1.241229 2.996592 1.561981
v -0.000000 3.243488 1.561981
v -1.241229 2.996592 1.561981
v -2.293492 2.293492 1.561981
v -2.996592 1.241229 1.561981
v -3.243488 -0.000000 1.561981
v -2.996592 -1.241229 1.561981
v -2.293492 -2.293492 1.561981
v -1.241230 -2.996592 1.561981
v 0.000000 -3.243488 1.561981
v 1.241230 -2.996592 1.561981
v 2.293492 -2.293493 1.561981
v 2.996592 -1.241229 1.561981
v 3.509740 0.000000 0.801076
v 3.242577 1.343120 0.801076
v 2.481761 2.481761 0.801076
v 1.343120 3.242577 0.801076
v -0.000000 3.509740 0.801076
v -1.343119 3.242577 0.801076
v -2.481761 2.481761 0.801076
v -3.242577 1.343120 0.801076
v -3.509740 -0.000000 0.801076
v -3.242577 -1.343120 0.801076
v -2.481761 -2.481761 0.801076
v -1.343120 -3.242577 0.801076
v 0.000000 -3.509740 0.801076
v 1.343120 -3.242577 0.801076
v 2.481761 -2.481762 0.801076
v 3.242577 -1.343120 0.801076
v 3.600000 0.000000 -0.000000
v 3.325966 1.377660 -0.000000
v 2.545584 2.545584 -0.000000
v 1.377660 3.325966 -0.000000
v -0.000000 3.600000 -0.000000
v -1.377660 3.325966 -0.000000
v -2.545584 2.545584 -0.000000
v -3.325966 1.377661 -0.000000
v -3.600000 -0.000000 -0.000000
v -3.325966 -1.377660 -0.000000
v -2.545584 -2.545584 -0.000000
v -1.377661 -3.325966 -0.000000
v 0.000000 -3.600000 -0.000000
v 1.377661 -3.325966 -0.000000
v 2.545584 -2.545585 -0.000000
v 3.325966 -1.377660 -0.000000
v 3.509740 0.000000 -0.801075
v 3.242577 1.343120 -0.801075
v 2.481761 2.481761 -0.801075
v 1.343120 3.242577 -0.801075
v -0.000000 3.509740 -0.801075
v -1.343119 3.242577 -0.801075
v -2.481761 2.481761 -0.801075
v -3.242577 1.343120 -0.801075
v -3.509740 -0.000000 -0.801075
v -3.242577 -1.343120 -0.801075
v -2.481761 -2.481761 -0.801075
v -1.343120 -3.242577 -0.801075
v 0.000000 -3.509740 -0.801075
v 1.343120 -3.242577 -0.801075
v 2.481761 -2.481762 -0.801075
v 3.242577 -1.343120 -0.801075
v 3.243488 0.000000 -1.561982
v 2.996592 1.241229 -1.561982
v 2.293492 2.293492 -1.561982
v 1.241229 2.996592 -1.561982
v -0.000000 3.243488 -1.561982
v -1.241229 2.996592 -1.561982
v -2.293492 2.293492 -1.561982
v -2.996592 1.241229 -1.561982
v -3.243488 -0.000000 -1.561982
v -2.996592 -1.241229 -1.561982
v -2.293492 -2.293492 -1.561982
v -1.241230 -2.996592 -1.561982
v 0.000000 -3.243488 -1.561982
v 1.241230 -2.996592 -1.561982
v 2.293492 -2.293493 -1.561982
v 2.996592 -1.241229 -1.561982
v 2.814593 0.000000 -2.244563
v 2.600345 1.077098 -2.244563
v 1.990218 1.990218 -2.244563
v 1.077098 2.600345 -2.244563
v -0.000000 2.814593 -2.244563
v -1.077098 2.600345 -2.244563
v -1.990218 1.990218 -2.244563
v -2.600345 1.077098 -2.244563
v -2.814593 -0.000000 -2.244563
v -2.600345 -1.077098 -2.244563
v -1.990218 -1.990218 -2.244563
v -1.077099 -2.600345 -2.244563
v 0.000000 -2.814593 -2.244563
v 1.077099 -2.600345 -2.244563
v 1.990218 -1.990218 -2.244563
v 2.600345 -1.077098 -2.244563
v 2.244563 0.000000 -2.814593
v 2.073706 0.858957 -2.814593
v 1.587146 1.587146 -2.814593
v 0.858957 2.073706 -2.814593
v -0.000000 2.244563 -2.814593
v -0.858957 2.073706 -2.814593
v -1.587146 1.587146 -2.814593
v -2.073706 0.858957 -2.814593
v -2.244563 -0.000000 -2.814593
v -2.073706 -0.858957 -2.814593
v -1.587146 -1.587146 -2.814593
v -0.858957 -2.073706 -2.814593
v 0.000000 -2.244563 -2.814593
v 0.858958 -2.073706 -2.814593
v 1.587145 -1.587146 -2.814593
v 2.073706 -0.858957 -2.814593
v 1.561982 0.000000 -3.243488
v 1.443083 0.597745 -3.243488
v 1.104488 1.104488 -3.243488
v 0.597745 1.443083 -3.243488
v -0.000000 1.561982 -3.243488
v -0.597744 1.443083 -3.243488
v -1.104488 1.104488 -3.243488
v -1.443083 0.597745 -3.243488
v -1.561982 -0.000000 -3.243488
v -1.443083 -0.597745 -3.243488
v -1.104488 -1.104488 -3.243488
v -0.597745 -1.443083 -3.243488
v 0.000000 -1.561982 -3.243488
v 0.597745 -1.443083 -3.243488
v 1.104488 -1.104488 -3.243488
v 1.443083 -0.597745 -3.243488
v 0.801075 0.000000 -3.509740
v 0.740097 0.306558 -3.509740
v 0.566446 0.566446 -3.509740
v 0.306558 0.740097 -3.509740
v -0.000000 0.801075 -3.509740
v -0.306558 0.740097 -3.509740
v -0.566446 0.566446 -3.509740
v -0.740097 0.306558 -3.509740
v -0.801075 -0.000000 -3.509740
v -0.740097 -0.306558 -3.509740
v -0.566446 -0.566446 -3.509740
v -0.306558 -0.740097 -3.509740
v 0.000000 -0.801075 -3.509740
v 0.306558 -0.740097 -3.509740
v 0.566446 -0.566446 -3.509740
v 0.740097 -0.306558 -3.509740
v -0.000000 -0.000000 -3.600000
v -0.000000 -0.000000 -3.600000
v -0.000000 -0.000000 -3.600000
v -0.000000 -0.000000 -3.600000
v 0.000000 -0.000000 -3.600000
v 0.000000 -0.000000 -3.600000
v 0.000000 -0.000000 -3.600000
v 0.000000 -0.000000 -3.600000
v 0.000000 0.000000 -3.600000
v 0.000000 0.000000 -3.600000
v 0.000000 0.000000 -3.600000
v 0.000000 0.000000 -3.600000
v -0.000000 0.000000 -3.600000
v -0.000000 0.000000 -3.600000
v -0.000000 0.000000 -3.600000
v -0.000000 0.000000 -3.600000
