v 0.000000 0.000000 1.380000
v 0.000000 0.000000 1.380000
v 0.000000 0.000000 1.380000
v 0.000000 0.000000 1.380000
v -0.000000 0.000000 1.380000
v -0.000000 0.000000 1.380000
v -0.000000 0.000000 1.380000
v -0.000000 0.000000 1.380000
v -0.000000 -0.000000 1.380000
v -0.000000 -0.000000 1.380000
v -0.000000 -0.000000 1.380000
v -0.000000 -0.000000 1.380000
v 0.000000 -0.000000 1.380000
v 0.000000 -0.000000 1.380000
v 0.000000 -0.000000 1.380000
v 0.000000 -0.000000 1.380000
v 0.330256 0.000000 1.339900
v 0.305116 0.126383 1.339900
v 0.233526 0.233526 1.339900
v 0.126383 0.305116 1.339900
v -0.000000 0.330256 1.339900
v -0.126383 0.305116 1.339900
v -0.233526 0.233526 1.339900
v -0.305116 0.126383 1.339900
v -0.330256 -0.000000 1.339900
v -0.305116 -0.126383 1.339900
v -0.233526 -0.233526 1.339900
v -0.126383 -0.305116 1.339900
v 0.000000 -0.330256 1.339900
v 0.126383 -0.305116 1.339900
v 0.233526 -0.233526 1.339900
v 0.305116 -0.126383 1.339900
v 0.641318 0.000000 1.221929
v 0.592501 0.245422 1.221929
v 0.453480 0.453480 1.221929
v 0.245422 0.592501 1.221929
v -0.000000 0.641318 1.221929
v -0.245422 0.592501 1.221929
v -0.453480 0.453480 1.221929
v -0.592501 0.245422 1.221929
v -0.641318 -0.000000 1.221929
v -0.592501 -0.245422 1.221929
v -0.453480 -0.453480 1.221929
v -0.245422 -0.592501 1.221929
v 0.000000 -0.641318 1.221929
v 0.245422 -0.592501 1.221929
v 0.453480 -0.453480 1.221929
v 0.592501 -0.245422 1.221929
v 0.915109 0.000000 1.032945
v 0.845451 0.350197 1.032945
v 0.647080 0.647080 1.032945
v 0.350197 0.845451 1.032945
v -0.000000 0.915109 1.032945
v -0.350197 0.845451 1.032945
v -0.647080 0.647080 1.032945
v -0.845451 0.350197 1.032945
v -0.915109 -0.000000 1.032945
v -0.845451 -0.350197 1.032945
v -0.647080 -0.647080 1.032945
v -0.350197 -0.845451 1.032945
v 0.000000 -0.915109 1.032945
v 0.350197 -0.845451 1.032945
v 0.647080 -0.647080 1.032945
v 0.845451 -0.350197 1.032945
v 1.135718 0.000000 0.783929
v 1.049266 0.434620 0.783929
v 0.803074 0.803074 0.783929
v 0.434620 1.049266 0.783929
v -0.000000 1.135718 0.783929
v -0.434620 1.049266 0.783929
v -0.803074 0.803074 0.783929
v -1.049266 0.434620 0.783929
v -1.135718 -0.000000 0.783929
v -1.049266 -0.434620 0.783929
v -0.803074 -0.803074 0.783929
v -0.434621 -1.049266 0.783929
v 0.000000 -1.135718 0.783929
v 0.434621 -1.049266 0.783929
v 0.803074 -0.803074 0.783929
v 1.049266 -0.434620 0.783929
v 1.290322 0.000000 0.489355
v 1.192102 0.493785 0.489355
v 0.912396 0.912396 0.489355
v 0.493785 1.192102 0.489355
v -0.000000 1.290322 0.489355
v -0.493785 1.192103 0.489355
v -0.912396 0.912396 0.489355
v -1.192102 0.493785 0.489355
v -1.290322 -0.000000 0.489355
v -1.192102 -0.493785 0.489355
v -0.912396 -0.912396 0.489355
v -0.493785 -1.192102 0.489355
v 0.000000 -1.290322 0.489355
v 0.493785 -1.192102 0.489355
v 0.912396 -0.912396 0.489355
v 1.192103 -0.493785 0.489355
v 1.369938 0.000000 0.166341
v 1.265658 0.524253 0.166341
v 0.968693 0.968693 0.166341
v 0.524253 1.265658 0.166341
v -0.000000 1.369938 0.166341
v -0.524253 1.265658 0.166341
v -0.968693 0.968693 0.166341
v -1.265658 0.524253 0.166341
v -1.369938 -0.000000 0.166341
v -1.265658 -0.524253 0.166341
v -0.968693 -0.968693 0.166341
v -0.524253 -1.265658 0.166341
v 0.000000 -1.369938 0.166341
v 0.524253 -1.265658 0.166341
v 0.968692 -0.968693 0.166341
v 1.265658 -0.524253 0.166341
v 1.369938 0.000000 -0.166341
v 1.265658 0.524253 -0.166341
v 0.968693 0.968693 -0.166341
v 0.524253 1.265658 -0.166341
v -0.000000 1.369938 -0.166341
v -0.524253 1.265658 -0.166341
v -0.968693 0.968693 -0.166341
v -1.265658 0.524253 -0.166341
v -1.369938 -0.000000 -0.166341
v -1.265658 -0.524253 -0.166341
v -0.968693 -0.968693 -0.166341
v -0.524253 -1.265658 -0.166341
v 0.000000 -1.369938 -0.166341
v 0.524253 -1.265658 -0.166341
v 0.968692 -0.968693 -0.166341
v 1.265658 -0.524253 -0.166341
v 1.290322 0.000000 -0.489355
v 1.192102 0.493785 -0.489355
v 0.912396 0.912396 -0.489355
v 0.493785 1.192102 -0.489355
v -0.000000 1.290322 -0.489355
v -0.493785 1.192103 -0.489355
v -0.912396 0.912396 -0.489355
v -1.192102 0.493785 -0.489355
v -1.290322 -0.000000 -0.489355
v -1.192102 -0.493785 -0.489355
v -0.912396 -0.912396 -0.489355
v -0.493785 -1.192102 -0.489355
v 0.000000 -1.290322 -0.489355
v 0.493785 -1.192102 -0.489355
v 0.912396 -0.912396 -0.489355
v 1.192103 -0.493785 -0.489355
v 1.135718 0.000000 -0.783929
v 1.049266 0.434620 -0.783929
v 0.803074 0.803074 -0.783929
v 0.434620 1.049266 -0.783929
v -0.000000 1.135718 -0.783929
v -0.434620 1.049266 -0.783929
v -0.803074 0.803074 -0.783929
v -1.049266 0.434620 -0.783929
v -1.135718 -0.000000 -0.783929
v -1.049266 -0.434620 -0.783929
v -0.803074 -0.803074 -0.783929
v -0.434621 -1.049266 -0.783929
v 0.000000 -1.135718 -0.783929
v 0.434621 -1.049266 -0.783929
v 0.803074 -0.803074 -0.783929
v 1.049266 -0.434620 -0.783929
v 0.915109 0.000000 -1.032945
v 0.845451 0.350197 -1.032945
v 0.647080 0.647080 -1.032945
v 0.350197 0.845451 -1.032945
v -0.000000 0.915109 -1.032945
v -0.350197 0.845451 -1.032945
v -0.647080 0.647080 -1.032945
v -0.845451 0.350197 -1.032945
v -0.915109 -0.000000 -1.032945
v -0.845451 -0.350197 -1.032945
v -0.647080 -0.647080 -1.032945
v -0.350197 -0.845451 -1.032945
v 0.000000 -0.915109 -1.032945
v 0.350197 -0.845451 -1.032945
v 0.647080 -0.647080 -1.032945
v 0.845451 -0.350197 -1.032945
v 0.641318 0.000000 -1.221929
v 0.592501 0.245422 -1.221929
v 0.453480 0.453480 -1.221929
v 0.245422 0.592501 -1.221929
v -0.000000 0.641318 -1.221929
v -0.245422 0.592501 -1.221929
v -0.453480 0.453480 -1.221929
v -0.592501 0.245422 -1.221929
v -0.641318 -0.000000 -1.221929
v -0.592501 -0.245422 -1.221929
v -0.453480 -0.453480 -1.221929
v -0.245422 -0.592501 -1.221929
v 0.000000 -0.641318 -1.221929
v 0.245422 -0.592501 -1.221929
v 0.453480 -0.453480 -1.221929
v 0.592501 -0.245422 -1.221929
v 0.330256 0.000000 -1.339900
v 0.305116 0.126383 -1.339900
v 0.233526 0.233526 -1.339900
v 0.126383 0.305116 -1.339900
v -0.000000 0.330256 -1.339900
v -0.126383 0.305116 -1.339900
v -0.233526 0.233526 -1.339900
v -0.305116 0.126383 -1.339900
v -0.330256 -0.000000 -1.339900
v -0.305116 -0.126383 -1.339900
v -0.233526 -0.233526 -1.339900
v -0.126383 -0.305116 -1.339900
v 0.000000 -0.330256 -1.339900
v 0.126383 -0.305116 -1.339900
v 0.233526 -0.233526 -1.339900
v 0.305116 -0.126383 -1.339900
v -0.000000 -0.000000 -1.380000
v -0.000000 -0.000000 -1.380000
v -0.000000 -0.000000 -1.380000
v -0.000000 -0.000000 -1.380000
v 0.000000 -0.000000 -1.380000
v 0.000000 -0.000000 -1.380000
v 0.000000 -0.000000 -1.380000
v 0.000000 -0.000000 -1.380000
v 0.000000 0.000000 -1.380000
v 0.000000 0.000000 -1.380000
v 0.000000 0.000000 -1.380000
v 0.000000 0.000000 -1.380000
v -0.000000 0.000000 -1.380000
v -0.000000 0.000000 -1.380000
v -0.000000 0.000000 -1.380000
v -0.000000 0.000000 -1.380000
