v 5.222400 0.000000 0.000000
v 4.817504 0.000000 0.977504
v 3.840000 0.000000 1.382400
v 2.862496 0.000000 0.977504
v 2.457600 0.000000 -0.000000
v 2.862496 0.000000 -0.977504
v 3.840000 0.000000 -1.382400
v 4.817504 0.000000 -0.977505
v 4.824869 1.998526 0.000000
v 4.450794 1.843579 0.977504
v 3.547698 1.469504 1.382400
v 2.644601 1.095430 0.977504
v 2.270526 0.940483 -0.000000
v 2.644601 1.095430 -0.977504
v 3.547698 1.469504 -1.382400
v 4.450794 1.843579 -0.977505
v 3.692795 3.692795 0.000000
v 3.406490 3.406490 0.977504
v 2.715290 2.715290 1.382400
v 2.024090 2.024090 0.977504
v 1.737786 1.737786 -0.000000
v 2.024090 2.024090 -0.977504
v 2.715290 2.715290 -1.382400
v 3.406490 3.406490 -0.977505
v 1.998526 4.824869 0.000000
v 1.843579 4.450794 0.977504
v 1.469504 3.547698 1.382400
v 1.095430 2.644601 0.977504
v 0.940483 2.270526 -0.000000
v 1.095430 2.644601 -0.977504
v 1.469504 3.547698 -1.382400
v 1.843579 4.450794 -0.977505
v -0.000000 5.222400 0.000000
v -0.000000 4.817504 0.977504
v -0.000000 3.840000 1.382400
v -0.000000 2.862496 0.977504
v -0.000000 2.457600 -0.000000
v -0.000000 2.862496 -0.977504
v -0.000000 3.840000 -1.382400
v -0.000000 4.817504 -0.977505
v -1.998526 4.824869 0.000000
v -1.843579 4.450794 0.977504
v -1.469504 3.547698 1.382400
v -1.095430 2.644601 0.977504
v -0.940483 2.270526 -0.000000
v -1.095430 2.644601 -0.977504
v -1.469504 3.547698 -1.382400
v -1.843579 4.450794 -0.977505
v -3.692795 3.692795 0.000000
v -3.406490 3.406490 0.977504
v -2.715290 2.715290 1.382400
v -2.024090 2.024090 0.977504
v -1.737786 1.737786 -0.000000
v -2.024090 2.024090 -0.977504
v -2.715290 2.715290 -1.382400
v -3.406490 3.406490 -0.977505
v -4.824869 1.998526 0.000000
v -4.450794 1.843579 0.977504
v -3.547698 1.469505 1.382400
v -2.644601 1.095430 0.977504
v -2.270526 0.940483 -0.000000
v -2.644601 1.095430 -0.977504
v -3.547698 1.469505 -1.382400
v -4.450794 1.843579 -0.977505
v -5.222400 -0.000000 0.000000
v -4.817504 -0.000000 0.977504
v -3.840000 -0.000000 1.382400
v -2.862496 -0.000000 0.977504
v -2.457600 -0.000000 -0.000000
v -2.862496 -0.000000 -0.977504
v -3.840000 -0.000000 -1.382400
v -4.817504 -0.000000 -0.977505
v -4.824869 -1.998526 0.000000
v -4.450794 -1.843579 0.977504
v -3.547698 -1.469504 1.382400
v -2.644601 -1.095430 0.977504
v -2.270526 -0.940483 -0.000000
v -2.644601 -1.095430 -0.977504
v -3.547698 -1.469504 -1.382400
v -4.450794 -1.843579 -0.977505
v -3.692795 -3.692794 0.000000
v -3.406490 -3.406490 0.977504
v -2.715290 -2.715290 1.382400
v -2.024090 -2.024090 0.977504
v -1.737786 -1.737786 -0.000000
v -2.024090 -2.024090 -0.977504
v -2.715290 -2.715290 -1.382400
v -3.406490 -3.406490 -0.977505
v -1.998527 -4.824869 0.000000
v -1.843580 -4.450794 0.977504
v -1.469505 -3.547698 1.382400
v -1.095430 -2.644601 0.977504
v -0.940483 -2.270526 -0.000000
v -1.095430 -2.644601 -0.977504
v -1.469505 -3.547698 -1.382400
v -1.843580 -4.450794 -0.977505
v 0.000000 -5.222400 0.000000
v 0.000000 -4.817504 0.977504
v 0.000000 -3.840000 1.382400
v 0.000000 -2.862496 0.977504
v 0.000000 -2.457600 -0.000000
v 0.000000 -2.862496 -0.977504
v 0.000000 -3.840000 -1.382400
v 0.000000 -4.817504 -0.977505
v 1.998527 -4.824868 0.000000
v 1.843580 -4.450793 0.977504
v 1.469505 -3.547697 1.382400
v 1.095430 -2.644601 0.977504
v 0.940483 -2.270526 -0.000000
v 1.095430 -2.644601 -0.977504
v 1.469505 -3.547697 -1.382400
v 1.843580 -4.450793 -0.977505
v 3.692794 -3.692795 0.000000
v 3.406489 -3.406491 0.977504
v 2.715290 -2.715291 1.382400
v 2.024090 -2.024090 0.977504
v 1.737785 -1.737786 -0.000000
v 2.024090 -2.024090 -0.977504
v 2.715290 -2.715291 -1.382400
v 3.406489 -3.406491 -0.977505
v 4.824869 -1.998526 0.000000
v 4.450794 -1.843579 0.977504
v 3.547698 -1.469504 1.382400
v 2.644601 -1.095430 0.977504
v 2.270526 -0.940483 -0.000000
v 2.644601 -1.095430 -0.977504
v 3.547698 -1.469504 -1.382400
v 4.450794 -1.843579 -0.977505
