v 0.000000 0.000000 5.800000
v 0.000000 0.000000 5.800000
v 0.000000 0.000000 5.800000
v 0.000000 0.000000 5.800000
v 0.000000 0.000000 5.800000
v -0.000000 0.000000 5.800000
v -0.000000 0.000000 5.800000
v -0.000000 0.000000 5.800000
v -0.000000 0.000000 5.800000
v -0.000000 -0.000000 5.800000
v -0.000000 -0.000000 5.800000
v -0.000000 -0.000000 5.800000
v -0.000000 -0.000000 5.800000
v -0.000000 -0.000000 5.800000
v 0.000000 -0.000000 5.800000
v 0.000000 -0.000000 5.800000
v 0.000000 -0.000000 5.800000
v 0.000000 -0.000000 5.800000
v 1.131524 0.000000 5.688555
v 1.063285 0.387004 5.688555
v 0.866798 0.727330 5.688555
v 0.565762 0.979929 5.688555
v 0.196487 1.114334 5.688555
v -0.196487 1.114334 5.688555
v -0.565762 0.979928 5.688555
v -0.866798 0.727330 5.688555
v -1.063285 0.387004 5.688555
v -1.131524 -0.000000 5.688555
v -1.063285 -0.387004 5.688555
v -0.866798 -0.727330 5.688555
v -0.565762 -0.979929 5.688555
v -0.196487 -1.114334 5.688555
v 0.196487 -1.114334 5.688555
v 0.565762 -0.979929 5.688555
v 0.866798 -0.727330 5.688555
v 1.063285 -0.387004 5.688555
v 2.219564 0.000000 5.358501
v 2.085708 0.759136 5.358501
v 1.700285 1.426708 5.358501
v 1.109782 1.922199 5.358501
v 0.385423 2.185844 5.358501
v -0.385423 2.185844 5.358501
v -1.109782 1.922199 5.358501
v -1.700285 1.426708 5.358501
v -2.085708 0.759136 5.358501
v -2.219564 -0.000000 5.358501
v -2.085708 -0.759136 5.358501
v -1.700285 -1.426708 5.358501
v -1.109782 -1.922199 5.358501
v -0.385423 -2.185844 5.358501
v 0.385423 -2.185844 5.358501
v 1.109782 -1.922199 5.358501
v 1.700285 -1.426709 5.358501
v 2.085708 -0.759136 5.358501
v 3.222307 0.000000 4.822524
v 3.027978 1.102094 4.822524
v 2.468431 2.071259 4.822524
v 1.611154 2.790600 4.822524
v 0.559548 3.173353 4.822524
v -0.559548 3.173353 4.822524
v -1.611154 2.790600 4.822524
v -2.468431 2.071259 4.822524
v -3.027978 1.102094 4.822524
v -3.222307 -0.000000 4.822524
v -3.027978 -1.102094 4.822524
v -2.468431 -2.071259 4.822524
v -1.611153 -2.790600 4.822524
v -0.559548 -3.173353 4.822524
v 0.559548 -3.173353 4.822524
v 1.611153 -2.790600 4.822524
v 2.468430 -2.071260 4.822524
v 3.027978 -1.102095 4.822524
v 4.101219 0.000000 4.101219
v 3.853885 1.402699 4.101219
v 3.141716 2.636213 4.101219
v 2.050609 3.551760 4.101219
v 0.712169 4.038912 4.101219
v -0.712169 4.038912 4.101219
v -2.050610 3.551760 4.101219
v -3.141716 2.636213 4.101219
v -3.853885 1.402700 4.101219
v -4.101219 -0.000000 4.101219
v -3.853885 -1.402700 4.101219
v -3.141716 -2.636213 4.101219
v -2.050609 -3.551760 4.101219
v -0.712169 -4.038913 4.101219
v 0.712169 -4.038912 4.101219
v 2.050609 -3.551760 4.101219
v 3.141716 -2.636214 4.101219
v 3.853885 -1.402700 4.101219
v 4.822524 0.000000 3.222307
v 4.531690 1.649400 3.222307
v 3.694267 3.099858 3.222307
v 2.411262 4.176428 3.222307
v 0.837423 4.749259 3.222307
v -0.837422 4.749259 3.222307
v -2.411262 4.176428 3.222307
v -3.694267 3.099859 3.222307
v -4.531690 1.649401 3.222307
v -4.822524 -0.000000 3.222307
v -4.531690 -1.649400 3.222307
v -3.694268 -3.099858 3.222307
v -2.411261 -4.176428 3.222307
v -0.837422 -4.749259 3.222307
v 0.837422 -4.749259 3.222307
v 2.411261 -4.176428 3.222307
v 3.694267 -3.099859 3.222307
v 4.531690 -1.649401 3.222307
v 5.358501 0.000000 2.219564
v 5.035344 1.832715 2.219564
v 4.104850 3.444378 2.219564
v 2.679250 4.640599 2.219564
v 0.930494 5.277093 2.219564
v -0.930494 5.277093 2.219564
v -2.679251 4.640598 2.219564
v -4.104850 3.444378 2.219564
v -5.035344 1.832716 2.219564
v -5.358501 -0.000000 2.219564
v -5.035344 -1.832716 2.219564
v -4.104851 -3.444378 2.219564
v -2.679250 -4.640599 2.219564
v -0.930494 -5.277094 2.219564
v 0.930494 -5.277093 2.219564
v 2.679250 -4.640599 2.219564
v 4.104850 -3.444379 2.219564
v 5.035344 -1.832717 2.219564
v 5.688555 0.000000 1.131524
v 5.345493 1.945600 1.131524
v 4.357686 3.656532 1.131524
v 2.844277 4.926433 1.131524
v 0.987807 5.602133 1.131524
v -0.987807 5.602133 1.131524
v -2.844278 4.926433 1.131524
v -4.357686 3.656533 1.131524
v -5.345493 1.945601 1.131524
v -5.688555 -0.000000 1.131524
v -5.345493 -1.945600 1.131524
v -4.357686 -3.656532 1.131524
v -2.844277 -4.926433 1.131524
v -0.987807 -5.602133 1.131524
v 0.987807 -5.602133 1.131524
v 2.844277 -4.926433 1.131524
v 4.357685 -3.656533 1.131524
v 5.345492 -1.945602 1.131524
v 5.800000 0.000000 -0.000000
v 5.450217 1.983717 -0.000000
v 4.443058 3.728168 -0.000000
v 2.900000 5.022948 -0.000000
v 1.007160 5.711885 -0.000000
v -1.007160 5.711885 -0.000000
v -2.900000 5.022947 -0.000000
v -4.443058 3.728168 -0.000000
v -5.450217 1.983717 -0.000000
v -5.800000 -0.000001 -0.000000
v -5.450217 -1.983717 -0.000000
v -4.443058 -3.728168 -0.000000
v -2.900000 -5.022948 -0.000000
v -1.007159 -5.711885 -0.000000
v 1.007159 -5.711885 -0.000000
v 2.900000 -5.022948 -0.000000
v 4.443057 -3.728169 -0.000000
v 5.450217 -1.983718 -0.000000
v 5.688555 0.000000 -1.131524
v 5.345493 1.945600 -1.131524
v 4.357686 3.656532 -1.131524
v 2.844277 4.926433 -1.131524
v 0.987807 5.602133 -1.131524
v -0.987807 5.602133 -1.131524
v -2.844278 4.926433 -1.131524
v -4.357686 3.656533 -1.131524
v -5.345493 1.945601 -1.131524
v -5.688555 -0.000000 -1.131524
v -5.345493 -1.945600 -1.131524
v -4.357686 -3.656532 -1.131524
v -2.844277 -4.926433 -1.131524
v -0.987807 -5.602133 -1.131524
v 0.987807 -5.602133 -1.131524
v 2.844277 -4.926433 -1.131524
v 4.357685 -3.656533 -1.131524
v 5.345492 -1.945602 -1.131524
v 5.358501 0.000000 -2.219564
v 5.035344 1.832715 -2.219564
v 4.104850 3.444378 -2.219564
v 2.679250 4.640599 -2.219564
v 0.930494 5.277093 -2.219564
v -0.930494 5.277093 -2.219564
v -2.679251 4.640598 -2.219564
v -4.104850 3.444378 -2.219564
v -5.035344 1.832716 -2.219564
v -5.358501 -0.000000 -2.219564
v -5.035344 -1.832716 -2.219564
v -4.104851 -3.444378 -2.219564
v -2.679250 -4.640599 -2.219564
v -0.930494 -5.277094 -2.219564
v 0.930494 -5.277093 -2.219564
v 2.679250 -4.640599 -2.219564
v 4.104850 -3.444379 -2.219564
v 5.035344 -1.832717 -2.219564
v 4.822524 0.000000 -3.222307
v 4.531690 1.649400 -3.222307
v 3.694268 3.099859 -3.222307
v 2.411262 4.176429 -3.222307
v 0.837423 4.749259 -3.222307
v -0.837423 4.749259 -3.222307
v -2.411262 4.176428 -3.222307
v -3.694268 3.099859 -3.222307
v -4.531690 1.649401 -3.222307
v -4.822524 -0.000000 -3.222307
v -4.531690 -1.649400 -3.222307
v -3.694268 -3.099859 -3.222307
v -2.411262 -4.176429 -3.222307
v -0.837422 -4.749259 -3.222307
v 0.837422 -4.749259 -3.222307
v 2.411262 -4.176429 -3.222307
v 3.694267 -3.099859 -3.222307
v 4.531690 -1.649401 -3.222307
v 4.101219 0.000000 -4.101219
v 3.853885 1.402699 -4.101219
v 3.141716 2.636213 -4.101219
v 2.050609 3.551760 -4.101219
v 0.712169 4.038912 -4.101219
v -0.712169 4.038912 -4.101219
v -2.050610 3.551760 -4.101219
v -3.141716 2.636213 -4.101219
v -3.853885 1.402700 -4.101219
v -4.101219 -0.000000 -4.101219
v -3.853885 -1.402700 -4.101219
v -3.141716 -2.636213 -4.101219
v -2.050609 -3.551760 -4.101219
v -0.712169 -4.038913 -4.101219
v 0.712169 -4.038912 -4.101219
v 2.050609 -3.551760 -4.101219
v 3.141716 -2.636214 -4.101219
v 3.853885 -1.402700 -4.101219
v 3.222307 0.000000 -4.822524
v 3.027978 1.102094 -4.822524
v 2.468431 2.071259 -4.822524
v 1.611153 2.790600 -4.822524
v 0.559548 3.173353 -4.822524
v -0.559548 3.173353 -4.822524
v -1.611154 2.790600 -4.822524
v -2.468431 2.071259 -4.822524
v -3.027978 1.102094 -4.822524
v -3.222307 -0.000000 -4.822524
v -3.027978 -1.102094 -4.822524
v -2.468431 -2.071259 -4.822524
v -1.611153 -2.790600 -4.822524
v -0.559548 -3.173353 -4.822524
v 0.559548 -3.173353 -4.822524
v 1.611153 -2.790600 -4.822524
v 2.468430 -2.071259 -4.822524
v 3.027978 -1.102095 -4.822524
v 2.219564 0.000000 -5.358501
v 2.085708 0.759136 -5.358501
v 1.700285 1.426708 -5.358501
v 1.109782 1.922199 -5.358501
v 0.385423 2.185844 -5.358501
v -0.385423 2.185844 -5.358501
v -1.109782 1.922199 -5.358501
v -1.700285 1.426708 -5.358501
v -2.085708 0.759136 -5.358501
v -2.219564 -0.000000 -5.358501
v -2.085708 -0.759136 -5.358501
v -1.700285 -1.426708 -5.358501
v -1.109782 -1.922199 -5.358501
v -0.385423 -2.185844 -5.358501
v 0.385423 -2.185844 -5.358501
v 1.109782 -1.922199 -5.358501
v 1.700285 -1.426709 -5.358501
v 2.085708 -0.759136 -5.358501
v 1.131524 0.000000 -5.688555
v 1.063285 0.387004 -5.688555
v 0.866798 0.727329 -5.688555
v 0.565762 0.979928 -5.688555
v 0.196487 1.114333 -5.688555
v -0.196487 1.114333 -5.688555
v -0.565762 0.979928 -5.688555
v -0.866798 0.727330 -5.688555
v -1.063285 0.387004 -5.688555
v -1.131524 -0.000000 -5.688555
v -1.063285 -0.387004 -5.688555
v -0.866798 -0.727329 -5.688555
v -0.565762 -0.979928 -5.688555
v -0.196487 -1.114334 -5.688555
v 0.196487 -1.114333 -5.688555
v 0.565762 -0.979928 -5.688555
v 0.866797 -0.727330 -5.688555
v 1.063285 -0.387004 -5.688555
v -0.000001 -0.000000 -5.800000
v -0.000000 -0.000000 -5.800000
v -0.000000 -0.000000 -5.800000
v -0.000000 -0.000000 -5.800000
v -0.000000 -0.000000 -5.800000
v 0.000000 -0.000000 -5.800000
v 0.000000 -0.000000 -5.800000
v 0.000000 -0.000000 -5.800000
v 0.000000 -0.000000 -5.800000
v 0.000001 0.000000 -5.800000
v 0.000000 0.000000 -5.800000
v 0.000000 0.000000 -5.800000
v 0.000000 0.000000 -5.800000
v 0.000000 0.000000 -5.800000
v -0.000000 0.000000 -5.800000
v -0.000000 0.000000 -5.800000
v -0.000000 0.000000 -5.800000
v -0.000000 0.000000 -5.800000
