v 1.320000 0.000000 -3.141600
v 1.205880 0.536892 -3.141600
v 0.883252 0.980951 -3.141600
v 0.407902 1.255395 -3.141600
v -0.137978 1.312769 -3.141600
v -0.660000 1.143153 -3.141600
v -1.067902 0.775876 -3.141600
v -1.291155 0.274443 -3.141600
v -1.291155 -0.274444 -3.141600
v -1.067902 -0.775877 -3.141600
v -0.660000 -1.143154 -3.141600
v -0.137977 -1.312769 -3.141600
v 0.407903 -1.255394 -3.141600
v 0.883253 -0.980951 -3.141600
v 1.205880 -0.536892 -3.141600
v 1.320000 0.000000 3.141600
v 1.205880 0.536892 3.141600
v 0.883252 0.980951 3.141600
v 0.407902 1.255395 3.141600
v -0.137978 1.312769 3.141600
v -0.660000 1.143153 3.141600
v -1.067902 0.775876 3.141600
v -1.291155 0.274443 3.141600
v -1.291155 -0.274444 3.141600
v -1.067902 -0.775877 3.141600
v -0.660000 -1.143154 3.141600
v -0.137977 -1.312769 3.141600
v 0.407903 -1.255394 3.141600
v 0.883253 -0.980951 3.141600
v 1.205880 -0.536892 3.141600
f 1 2 17 16
f 2 3 18 17
f 3 4 19 18
f 4 5 20 19
f 5 6 21 20
f 6 7 22 21
f 7 8 23 22
f 8 9 24 23
f 9 10 25 24
f 10 11 26 25
f 11 12 27 26
f 12 13 28 27
f 13 14 29 28
f 14 15 30 29
f 15 1 16 30
