v 0.000000 0.000000 3.920000
v 0.000000 0.000000 3.920000
v 0.000000 0.000000 3.920000
v 0.000000 0.000000 3.920000
v 0.000000 0.000000 3.920000
v -0.000000 0.000000 3.920000
v -0.000000 0.000000 3.920000
v -0.000000 0.000000 3.920000
v -0.000000 0.000000 3.920000
v -0.000000 -0.000000 3.920000
v -0.000000 -0.000000 3.920000
v -0.000000 -0.000000 3.920000
v -0.000000 -0.000000 3.920000
v 0.000000 -0.000000 3.920000
v 0.000000 -0.000000 3.920000
v 0.000000 -0.000000 3.920000
v 0.000000 -0.000000 3.920000
v 0.938117 0.000000 3.806092
v 0.874768 0.338887 3.806092
v 0.693277 0.632006 3.806092
v 0.418155 0.839768 3.806092
v 0.086559 0.934116 3.806092
v -0.256728 0.902305 3.806092
v -0.565342 0.748634 3.806092
v -0.797603 0.493855 3.806092
v -0.922144 0.172379 3.806092
v -0.922144 -0.172379 3.806092
v -0.797603 -0.493855 3.806092
v -0.565342 -0.748634 3.806092
v -0.256728 -0.902305 3.806092
v 0.086558 -0.934116 3.806092
v 0.418155 -0.839768 3.806092
v 0.693277 -0.632006 3.806092
v 0.874768 -0.338887 3.806092
v 1.821715 0.000000 3.470988
v 1.698699 0.658079 3.470988
v 1.346264 1.227281 3.470988
v 0.812008 1.630732 3.470988
v 0.168087 1.813944 3.470988
v -0.498536 1.752172 3.470988
v -1.097829 1.453760 3.470988
v -1.548853 0.959009 3.470988
v -1.790697 0.334739 3.470988
v -1.790697 -0.334739 3.470988
v -1.548853 -0.959009 3.470988
v -1.097829 -1.453760 3.470988
v -0.498536 -1.752172 3.470988
v 0.168086 -1.813944 3.470988
v 0.812008 -1.630732 3.470988
v 1.346263 -1.227282 3.470988
v 1.698699 -0.658079 3.470988
v 2.599441 0.000000 2.934162
v 2.423906 0.939026 2.934162
v 1.921010 1.751232 2.934162
v 1.158670 2.326924 2.934162
v 0.239846 2.588352 2.934162
v -0.711371 2.500209 2.934162
v -1.566513 2.074399 2.934162
v -2.210089 1.368429 2.934162
v -2.555180 0.477646 2.934162
v -2.555180 -0.477646 2.934162
v -2.210089 -1.368429 2.934162
v -1.566513 -2.074398 2.934162
v -0.711371 -2.500209 2.934162
v 0.239846 -2.588352 2.934162
v 1.158671 -2.326924 2.934162
v 1.921010 -1.751232 2.934162
v 2.423906 -0.939026 2.934162
v 3.226097 0.000000 2.226814
v 3.008246 1.165401 2.226814
v 2.384114 2.173407 2.226814
v 1.437995 2.887883 2.226814
v 0.297667 3.212335 2.226814
v -0.882863 3.102943 2.226814
v -1.944158 2.574481 2.226814
v -2.742883 1.698321 2.226814
v -3.171166 0.592794 2.226814
v -3.171166 -0.592794 2.226814
v -2.742883 -1.698321 2.226814
v -1.944158 -2.574481 2.226814
v -0.882863 -3.102943 2.226814
v 0.297666 -3.212335 2.226814
v 1.437995 -2.887883 2.226814
v 2.384114 -2.173408 2.226814
v 3.008246 -1.165401 2.226814
v 3.665264 0.000000 1.390051
v 3.417757 1.324046 1.390051
v 2.708663 2.469272 1.390051
v 1.633749 3.281010 1.390051
v 0.338188 3.649628 1.390051
v -1.003047 3.525345 1.390051
v -2.208815 2.924944 1.390051
v -3.116270 1.929513 1.390051
v -3.602856 0.673491 1.390051
v -3.602856 -0.673490 1.390051
v -3.116270 -1.929513 1.390051
v -2.208815 -2.924943 1.390051
v -1.003047 -3.525345 1.390051
v 0.338187 -3.649629 1.390051
v 1.633749 -3.281010 1.390051
v 2.708662 -2.469273 1.390051
v 3.417757 -1.324046 1.390051
v 3.891419 0.000000 0.472504
v 3.628640 1.405743 0.472504
v 2.875793 2.621632 0.472504
v 1.734555 3.483455 0.472504
v 0.359055 3.874819 0.472504
v -1.064937 3.742866 0.472504
v -2.345104 3.105419 0.472504
v -3.308551 2.048568 0.472504
v -3.825160 0.715046 0.472504
v -3.825160 -0.715046 0.472504
v -3.308551 -2.048568 0.472504
v -2.345104 -3.105419 0.472504
v -1.064937 -3.742866 0.472504
v 0.359054 -3.874819 0.472504
v 1.734555 -3.483455 0.472504
v 2.875793 -2.621632 0.472504
v 3.628640 -1.405743 0.472504
v 3.891419 0.000000 -0.472504
v 3.628640 1.405743 -0.472504
v 2.875793 2.621632 -0.472504
v 1.734555 3.483455 -0.472504
v 0.359055 3.874819 -0.472504
v -1.064937 3.742866 -0.472504
v -2.345104 3.105419 -0.472504
v -3.308551 2.048568 -0.472504
v -3.825160 0.715046 -0.472504
v -3.825160 -0.715046 -0.472504
v -3.308551 -2.048568 -0.472504
v -2.345104 -3.105419 -0.472504
v -1.064937 -3.742866 -0.472504
v 0.359054 -3.874819 -0.472504
v 1.734555 -3.483455 -0.472504
v 2.875793 -2.621632 -0.472504
v 3.628640 -1.405743 -0.472504
v 3.665264 0.000000 -1.390051
v 3.417757 1.324046 -1.390051
v 2.708663 2.469272 -1.390051
v 1.633749 3.281010 -1.390051
v 0.338188 3.649628 -1.390051
v -1.003047 3.525345 -1.390051
v -2.208815 2.924944 -1.390051
v -3.116270 1.929513 -1.390051
v -3.602856 0.673491 -1.390051
v -3.602856 -0.673490 -1.390051
v -3.116270 -1.929513 -1.390051
v -2.208815 -2.924943 -1.390051
v -1.003047 -3.525345 -1.390051
v 0.338187 -3.649629 -1.390051
v 1.633749 -3.281010 -1.390051
v 2.708662 -2.469273 -1.390051
v 3.417757 -1.324046 -1.390051
v 3.226097 0.000000 -2.226814
v 3.008246 1.165401 -2.226814
v 2.384115 2.173408 -2.226814
v 1.437995 2.887884 -2.226814
v 0.297667 3.212335 -2.226814
v -0.882863 3.102943 -2.226814
v -1.944158 2.574481 -2.226814
v -2.742883 1.698321 -2.226814
v -3.171167 0.592794 -2.226814
v -3.171167 -0.592794 -2.226814
v -2.742883 -1.698321 -2.226814
v -1.944158 -2.574481 -2.226814
v -0.882863 -3.102943 -2.226814
v 0.297666 -3.212335 -2.226814
v 1.437995 -2.887884 -2.226814
v 2.384114 -2.173408 -2.226814
v 3.008246 -1.165401 -2.226814
v 2.599441 0.000000 -2.934162
v 2.423906 0.939026 -2.934162
v 1.921010 1.751232 -2.934162
v 1.158670 2.326924 -2.934162
v 0.239846 2.588352 -2.934162
v -0.711371 2.500209 -2.934162
v -1.566513 2.074399 -2.934162
v -2.210089 1.368429 -2.934162
v -2.555180 0.477646 -2.934162
v -2.555180 -0.477646 -2.934162
v -2.210089 -1.368429 -2.934162
v -1.566513 -2.074398 -2.934162
v -0.711371 -2.500209 -2.934162
v 0.239846 -2.588352 -2.934162
v 1.158671 -2.326924 -2.934162
v 1.921010 -1.751232 -2.934162
v 2.423906 -0.939026 -2.934162
v 1.821715 0.000000 -3.470988
v 1.698699 0.658079 -3.470988
v 1.346264 1.227282 -3.470988
v 0.812008 1.630733 -3.470988
v 0.168087 1.813944 -3.470988
v -0.498536 1.752172 -3.470988
v -1.097829 1.453760 -3.470988
v -1.548854 0.959009 -3.470988
v -1.790697 0.334739 -3.470988
v -1.790697 -0.334739 -3.470988
v -1.548854 -0.959009 -3.470988
v -1.097829 -1.453760 -3.470988
v -0.498536 -1.752172 -3.470988
v 0.168086 -1.813944 -3.470988
v 0.812008 -1.630733 -3.470988
v 1.346264 -1.227282 -3.470988
v 1.698699 -0.658080 -3.470988
v 0.938117 0.000000 -3.806092
v 0.874768 0.338887 -3.806092
v 0.693277 0.632006 -3.806092
v 0.418155 0.839768 -3.806092
v 0.086559 0.934116 -3.806092
v -0.256728 0.902305 -3.806092
v -0.565342 0.748634 -3.806092
v -0.797604 0.493855 -3.806092
v -0.922144 0.172379 -3.806092
v -0.922144 -0.172379 -3.806092
v -0.797604 -0.493855 -3.806092
v -0.565342 -0.748634 -3.806092
v -0.256728 -0.902305 -3.806092
v 0.086558 -0.934116 -3.806092
v 0.418155 -0.839768 -3.806092
v 0.693277 -0.632006 -3.806092
v 0.874768 -0.338887 -3.806092
v -0.000000 -0.000000 -3.920000
v -0.000000 -0.000000 -3.920000
v -0.000000 -0.000000 -3.920000
v -0.000000 -0.000000 -3.920000
v -0.000000 -0.000000 -3.920000
v 0.000000 -0.000000 -3.920000
v 0.000000 -0.000000 -3.920000
v 0.000000 -0.000000 -3.920000
v 0.000000 -0.000000 -3.920000
v 0.000000 0.000000 -3.920000
v 0.000000 0.000000 -3.920000
v 0.000000 0.000000 -3.920000
v 0.000000 0.000000 -3.920000
v -0.000000 0.000000 -3.920000
v -0.000000 0.000000 -3.920000
v -0.000000 0.000000 -3.920000
v -0.000000 0.000000 -3.920000
